<?xml version="1.0" encoding="utf-8"?>
<!-- Generator: Adobe Illustrator 25.2.3, SVG Export Plug-In . SVG Version: 6.00 Build 0)  -->
<svg version="1.1" id="Layer_1" xmlns="http://www.w3.org/2000/svg" xmlns:xlink="http://www.w3.org/1999/xlink" x="0px" y="0px"
	 viewBox="0 0 1024 1024" style="enable-background:new 0 0 1024 1024;" xml:space="preserve">
<style type="text/css">
	.st0{fill:#FFFFFF;}
	.st1{fill:#FCFCFC;}
	.st2{fill:#FAA500;stroke:#FAA500;stroke-miterlimit:10;}
</style>
<g>
	<path class="st0" d="M467.6,785c-29.84,0-50.12,4.8-67.21-19.08c-13.09-18.29-10.74-53.8-10.26-98.15V312.04h-63.93v-53.41h63.93
		v-156.2h44.75v156.2h74.59v53.41h-74.59v350.7c0,20.83-3.11,57.87,4.27,65.53c7.06,7.33,12.68,5.32,31.02,5.32
		c12.79,0,18.5,0.31,39.67,0.31l-0.38,51.1"/>
</g>
<g>
	<path class="st0" d="M702.58,331.68c18.21,8.81,33.51,20.62,45.92,35.42c12.4,14.81,21.81,32.11,28.21,51.92
		c6.4,19.81,9.61,40.92,9.61,63.33c0,22.42-3.21,43.52-9.61,63.33c-6.41,19.81-15.81,37.12-28.21,51.92
		c-12.41,14.81-27.72,26.52-45.92,35.12c-18.21,8.6-39.12,12.91-62.73,12.91c-23.62,0-44.52-4.3-62.73-12.91
		c-18.21-8.6-33.52-20.31-45.92-35.12c-12.41-14.8-21.82-32.12-28.21-51.92c-6.41-19.81-9.6-40.91-9.6-63.33
		c0-22.41,3.2-43.52,9.6-63.33c6.4-19.81,15.8-37.11,28.21-51.92c12.4-14.8,27.71-26.61,45.92-35.42
		c18.21-8.8,39.11-13.21,62.73-13.21C663.46,318.47,684.37,322.88,702.58,331.68z M592.43,361.69
		c-13.61,7.61-24.91,17.62-33.92,30.01c-9,12.41-15.81,26.52-20.41,42.32c-4.6,15.81-6.9,31.92-6.9,48.32
		c0,16.41,2.3,32.52,6.9,48.32c4.6,15.81,11.41,29.92,20.41,42.32c9,12.41,20.31,22.42,33.92,30.01
		c13.6,7.61,29.41,11.41,47.42,11.41c18.01,0,33.81-3.8,47.42-11.41c13.6-7.6,24.91-17.6,33.92-30.01c9-12.4,15.8-26.51,20.41-42.32
		c4.6-15.8,6.9-31.91,6.9-48.32c0-16.4-2.31-32.51-6.9-48.32c-4.61-15.8-11.41-29.91-20.41-42.32c-9-12.4-20.32-22.41-33.92-30.01
		c-13.61-7.6-29.41-11.41-47.42-11.41C621.85,350.29,606.03,354.1,592.43,361.69z"/>
</g>
<rect x="440.83" y="733.6" class="st0" width="277.9" height="51.8"/>
<path id="angle-chevron-left_copy" class="st1" d="M710.77,759.81l-60.61,60.61c-5.8,6.34-5.8,16.07,0,22.42
	c6.34,5.8,16.07,5.8,22.42,0l71.4-72.23l0,0c5.8-6.34,5.8-16.07,0-22.42l-71.4-71.4c-2.83-2.98-6.69-4.76-10.79-4.98
	c-4.18-0.12-8.17,1.73-10.79,4.98c-5.8,6.34-5.8,16.07,0,22.42L710.77,759.81z"/>
<g>
	<path class="st0" d="M57.04,709c1.64,0,3.3,0.32,4.95,0.95c1.64,0.63,3.71,2.43,6.19,5.37c9.07,10.1,20.01,17.67,32.81,22.72
		c12.79,5.05,27.24,7.58,43.34,7.58c22.69,0,43.23-5.05,61.6-15.15c18.36-10.1,33.01-24.19,43.95-42.29
		c10.93-18.09,16.41-38.71,16.41-61.86c0-26.93-5.99-48.7-17.95-65.33c-11.98-16.62-27.04-28.82-45.19-36.61
		c-18.17-7.78-36.74-11.68-55.72-11.68c-2.89,0-6.19,0.11-9.91,0.32c-3.71,0.22-7.12,0.53-10.21,0.95c-3.1,0.42-4.86,0.63-5.26,0.63
		c-3.71,0-6.71-1.26-8.98-3.79c-2.27-2.53-3.4-5.89-3.4-10.1c0-1.68,0.41-3.36,1.24-5.05c0.82-1.68,2.06-3.57,3.71-5.68
		L245.86,343.5l3.71,8.84H50.23c-3.31,0-6.19-1.26-8.67-3.79c-2.48-2.52-3.71-5.46-3.71-8.84c0-3.79,1.24-6.84,3.71-9.15
		c2.48-2.31,5.36-3.47,8.67-3.47h214.2c5.36,0,8.87,1.79,10.52,5.37c1.64,3.58,2.48,6.21,2.48,7.89c0,1.69-0.31,3.26-0.93,4.73
		c-0.62,1.48-1.76,3.06-3.4,4.73L142.47,496.27l-12.38-3.79c0-1.26,3.41-2.53,10.21-3.79c6.81-1.26,12.28-1.89,16.41-1.89
		c21.87,0,43.23,5.05,64.08,15.15c20.84,10.1,37.97,25.47,51.38,46.08c13.41,20.62,20.12,46.71,20.12,78.27
		c0,29.04-6.81,54.5-20.43,76.38c-13.62,21.89-31.68,38.93-54.17,51.13c-22.5,12.2-46.95,18.31-73.36,18.31
		c-17.75,0-35.08-3.26-52-9.78c-16.93-6.52-31.79-16.73-44.57-30.62c-1.24-1.26-2.17-2.62-2.79-4.1c-0.62-1.47-0.93-3.05-0.93-4.73
		c0-3.36,1.24-6.52,3.71-9.47C50.23,710.48,53.33,709,57.04,709z"/>
</g>
<g>
	<path class="st0" d="M972.64,751.07c-3.86,0-7.07-1.29-9.65-3.86c-2.57-2.57-3.86-5.57-3.86-9V330.46l6.43,3.86l-98.4,64.96
		c-2.57,1.72-4.93,2.57-7.07,2.57c-3.86,0-7.19-1.61-9.97-4.82c-2.79-3.22-4.18-6.32-4.18-9.33c0-4.71,2.35-8.36,7.07-10.93
		l112.55-73.96c2.14-1.29,4.07-2.03,5.79-2.25c1.71-0.21,3.43-0.1,5.14,0.32c2.99,0.43,5.36,1.83,7.07,4.18
		c1.71,2.36,2.57,5.26,2.57,8.68V738.2c0,3.44-1.29,6.43-3.86,9C979.72,749.78,976.5,751.07,972.64,751.07z"/>
</g>
<path class="st2" d="M950.98,269.41L835.3,345.57c-6.07,4-7.75,12.16-3.76,18.23v0c4,6.07,12.16,7.75,18.23,3.76l115.68-76.16
	c6.07-4,7.75-12.16,3.76-18.23v0C965.21,267.1,957.05,265.41,950.98,269.41z"/>
</svg>
