<svg id="Layer_1" data-name="Layer 1" xmlns="http://www.w3.org/2000/svg" viewBox="0 0 948.3 744.76"><defs><style>.cls-1{fill:#faa500;stroke:#faa500;stroke-miterlimit:10;}</style></defs><path d="M467.6,785c-29.84,0-50.12,4.81-67.22-19.07-13.09-18.29-10.73-53.81-10.26-98.15V312H326.19V258.63h63.93V102.43h44.76v156.2h74.58V312H434.88v350.7c0,20.84-3.11,57.87,4.26,65.53,7.06,7.34,12.68,5.33,31,5.33,12.78,0,18.5.31,39.67.3l-.38,51.1" transform="translate(-37.85 -102.43)"/><path d="M702.58,331.68a136.88,136.88,0,0,1,45.93,35.42A153.51,153.51,0,0,1,776.72,419a213.69,213.69,0,0,1,0,126.66q-9.62,29.72-28.21,51.93a133.32,133.32,0,0,1-45.93,35.11q-27.32,12.9-62.72,12.91t-62.73-12.91a133.13,133.13,0,0,1-45.93-35.11A153.29,153.29,0,0,1,503,545.68,213.69,213.69,0,0,1,503,419,153.33,153.33,0,0,1,531.2,367.1a136.68,136.68,0,0,1,45.93-35.42q27.3-13.2,62.73-13.21T702.58,331.68Zm-110.15,30a104.17,104.17,0,0,0-33.91,30A135.9,135.9,0,0,0,538.11,434a172.44,172.44,0,0,0,0,96.65A135.63,135.63,0,0,0,558.52,573a104,104,0,0,0,33.91,30q20.4,11.41,47.43,11.4T687.28,603a104,104,0,0,0,33.91-30,135.86,135.86,0,0,0,20.41-42.31,172.44,172.44,0,0,0,0-96.65,136.12,136.12,0,0,0-20.41-42.32,104.28,104.28,0,0,0-33.91-30q-20.41-11.38-47.42-11.4T592.43,361.69Z" transform="translate(-37.85 -102.43)"/><rect x="402.98" y="631.17" width="277.9" height="51.8"/><path id="angle-chevron-left_copy" data-name="angle-chevron-left copy" d="M710.77,759.81l-60.61,60.61a15.85,15.85,0,0,0,22.42,22.42L744,770.61h0a16.6,16.6,0,0,0,0-22.42l-71.4-71.4a16.06,16.06,0,0,0-10.79-5,13.41,13.41,0,0,0-10.8,5,16.62,16.62,0,0,0,0,22.42Z" transform="translate(-37.85 -102.43)"/><path d="M57,709a13.82,13.82,0,0,1,5,.94c1.65.63,3.72,2.43,6.19,5.37A85.93,85.93,0,0,0,101,738q19.19,7.58,43.34,7.58,34,0,61.6-15.15a115.78,115.78,0,0,0,43.95-42.29Q266.27,661,266.29,626.3q0-40.38-18-65.33a106.9,106.9,0,0,0-45.2-36.61,140,140,0,0,0-55.71-11.68c-2.9,0-6.19.11-9.91.31s-7.12.54-10.21,1-4.86.63-5.27.63a11.48,11.48,0,0,1-9-3.78q-3.42-3.8-3.41-10.1a11.32,11.32,0,0,1,1.24-5.05,32.75,32.75,0,0,1,3.72-5.69L245.86,343.5l3.71,8.84H50.23a11.75,11.75,0,0,1-8.67-3.79,12.22,12.22,0,0,1-3.71-8.83,12,12,0,0,1,3.71-9.16,12.35,12.35,0,0,1,8.67-3.47h214.2c5.36,0,8.87,1.8,10.53,5.37s2.47,6.21,2.47,7.89a12.06,12.06,0,0,1-.93,4.73,15.73,15.73,0,0,1-3.4,4.74L142.47,496.27l-12.38-3.79q0-1.89,10.22-3.79a94.76,94.76,0,0,1,16.4-1.89q32.81,0,64.08,15.15T272.17,548Q292.28,579,292.29,626.3q0,43.56-20.43,76.38a143.27,143.27,0,0,1-54.17,51.13,151.34,151.34,0,0,1-73.36,18.31,143.46,143.46,0,0,1-52-9.78,117.37,117.37,0,0,1-44.58-30.62,13.13,13.13,0,0,1-2.78-4.1,12.07,12.07,0,0,1-.93-4.74,14.52,14.52,0,0,1,3.71-9.47A11.7,11.7,0,0,1,57,709Z" transform="translate(-37.85 -102.43)"/><path d="M972.64,751.07a13.09,13.09,0,0,1-9.64-3.86,12.36,12.36,0,0,1-3.86-9V330.46l6.43,3.85-98.4,65a13,13,0,0,1-7.07,2.57,12.76,12.76,0,0,1-10-4.82c-2.8-3.22-4.18-6.32-4.18-9.33q0-7.06,7.07-10.93l112.55-74a15.24,15.24,0,0,1,5.79-2.25,14.18,14.18,0,0,1,5.14.32,10.21,10.21,0,0,1,7.08,4.18,14.41,14.41,0,0,1,2.57,8.68V738.2a12.32,12.32,0,0,1-3.86,9A13.1,13.1,0,0,1,972.64,751.07Z" transform="translate(-37.85 -102.43)"/><rect class="cls-1" x="817.97" y="305.32" width="164.82" height="26.32" rx="13.16" transform="translate(-64.63 445.16) rotate(-33.36)"/></svg>